<?xml version="1.0" encoding="UTF-8" standalone="no"?>
<!DOCTYPE svg PUBLIC "-//W3C//DTD SVG 1.1//EN" "http://www.w3.org/Graphics/SVG/1.1/DTD/svg11.dtd">
<!-- Created with Vectornator (http://vectornator.io/) -->
<svg height="216.0pt" stroke-miterlimit="10" style="fill-rule:nonzero;clip-rule:evenodd;stroke-linecap:round;stroke-linejoin:round;" version="1.1" viewBox="0 0 2900 216" width="2900.0pt" xml:space="preserve" xmlns="http://www.w3.org/2000/svg" xmlns:xlink="http://www.w3.org/1999/xlink">
<defs/>
<g id="Layer-3">
<text fill="#3e6097" font-family="SFProDisplay-Regular" font-size="186" opacity="1" stroke="none" text-anchor="start" transform="matrix(1 0 0 1 252.68 -3)" x="0" y="0">
<tspan textLength="2645.51" x="0" y="177.1"><![CDATA[linkedin.com/in/mahmoodhosseini]]></tspan>
</text>
</g>
<g id="Layer-1">
<path d="M163.875 4.49962L43.125 4.49962C19.3114 4.49962 0 23.811 0 47.6246L0 168.375C0 192.189 19.3114 211.5 43.125 211.5L163.875 211.5C187.697 211.5 207 192.189 207 168.375L207 47.6246C207 23.811 187.697 4.49962 163.875 4.49962ZM69 168.375L43.125 168.375L43.125 73.4996L69 73.4996L69 168.375ZM56.0625 62.5626C47.7308 62.5626 40.9688 55.7496 40.9688 47.3486C40.9688 38.9479 47.7308 32.1341 56.0625 32.1341C64.3942 32.1341 71.1562 38.9479 71.1562 47.3486C71.1562 55.7496 64.4029 62.5626 56.0625 62.5626ZM146.625 120.041C146.625 90.9916 112.125 93.1906 112.125 120.041L112.125 168.375L86.25 168.375L86.25 73.4996L112.125 73.4996L112.125 88.7226C124.166 66.4186 172.5 64.7716 172.5 110.079L172.5 168.375L146.625 168.375L146.625 120.041" fill="#3f6198" fill-rule="nonzero" opacity="1" stroke="none"/>
</g>
</svg>
